<svg xmlns="http://www.w3.org/2000/svg" height="48" viewBox="0 96 960 960" width="48"><path d="m164.717 948.87-54.108-54.109L535.13 469.239q-20.521-47.913-6.684-101.674 13.837-53.761 58.402-99.043 47.087-46.087 115.022-59.261 67.934-13.174 111.847 30.5 43.913 43.913 30.5 111.728-13.413 67.815-62.5 117.902-41.043 43.044-94.184 56.881-53.142 13.837-97.294-3.924l-57.369 58.13 314.282 314.283-54.109 54.109L479 634.587 164.717 948.87Zm121.174-358.631L165.043 469.391q-56.673-56.152-56.239-130.771.435-74.62 54.153-133.294L417 459.13 285.891 590.239Z"/></svg>