<svg xmlns="http://www.w3.org/2000/svg" height="48" viewBox="0 96 960 960" width="48"><path d="m622.326 774.283 55.435-54.957-157.283-159.305V362.435h-74.435v228.459l176.283 183.389ZM480.309 993.196q-85.188 0-161.857-32.988t-133.165-89.476q-56.496-56.487-89.49-133.144-32.993-76.656-32.993-161.837 0-85.438 33.1-161.463 33.098-76.026 89.66-132.609 56.563-56.583 133.095-89.848 76.533-33.266 161.617-33.266 85.446 0 161.452 33.262 76.005 33.261 132.595 89.85 56.589 56.59 89.85 132.622 33.262 76.032 33.262 161.509 0 85.476-33.266 161.771-33.265 76.294-89.848 132.857-56.583 56.562-132.576 89.661-75.993 33.099-161.436 33.099ZM480 576Zm-.179 339.891q139.744 0 239.907-99.49 100.163-99.49 100.163-240.224 0-139.981-100.074-240.025-100.075-100.043-240.258-100.043-140.363 0-239.907 99.957-99.543 99.957-99.543 240.377 0 140.6 99.608 240.024 99.607 99.424 240.104 99.424Z"/></svg>